<svg xmlns="http://www.w3.org/2000/svg" viewBox="0 0 64 64"><defs><radialGradient id="bushTwin01" cx="28%" cy="24%" r="76%"><stop offset="0%" stop-color="#4aa347"/><stop offset="52%" stop-color="#2f7d32"/><stop offset="100%" stop-color="#17451f"/></radialGradient></defs><g><ellipse cx="38" cy="42" rx="20" ry="16" fill="#17451f" opacity="0.45"/><path fill="url(#bushTwin01)" d="M10 38c-6-8 0-19 10-19 4-9 18-10 25-2 9 0 15 9 11 18 6 7 0 17-10 17-5 7-17 7-23 1-8 3-18-5-13-15z"/><ellipse cx="22" cy="35" rx="15" ry="16" fill="#276a2c"/><ellipse cx="42" cy="34" rx="15" ry="16" fill="#2f7d32"/><ellipse cx="31" cy="23" rx="13" ry="10" fill="#3f9a3f"/><ellipse cx="31" cy="42" rx="16" ry="13" fill="#2f7d32"/><ellipse cx="46" cy="44" rx="9" ry="9" fill="#1f5a27" opacity="0.8"/><ellipse cx="17" cy="45" rx="8" ry="8" fill="#1f5a27" opacity="0.65"/><path d="M17 27c7-7 20-8 30-1-8-4-18-3-25 3-5 4-8 10-8 16-4-6-3-13 3-18z" fill="#3f9a3f" opacity="0.28"/><path d="M28 54c8 2 19-1 23-8-6 2-12 2-18-1-4 2-9 2-14 1 2 4 5 7 9 8z" fill="#17451f" opacity="0.35"/><circle cx="21" cy="29" r="1.8" fill="#d7ef7a"/><circle cx="31" cy="20" r="1.7" fill="#a6d96a"/><circle cx="43" cy="28" r="1.7" fill="#d7ef7a"/><circle cx="50" cy="41" r="1.5" fill="#a6d96a"/><circle cx="32" cy="48" r="1.8" fill="#d7ef7a"/><circle cx="18" cy="42" r="1.5" fill="#a6d96a"/><path d="M19 36c4-2 8-2 12 1M34 35c4-2 8-1 12 2M27 47c4 0 8-1 11-3M41 45c3-1 5-3 7-6M25 26c3-2 7-2 10 0" stroke="#12381a" stroke-width="2" stroke-linecap="round" opacity="0.5" fill="none"/></g></svg>