<svg xmlns="http://www.w3.org/2000/svg" viewBox="0 0 64 64"><defs><radialGradient id="grassPatch01" cx="34%" cy="34%" r="72%"><stop offset="0%" stop-color="#3f9a3f"/><stop offset="60%" stop-color="#2f7d32"/><stop offset="100%" stop-color="#17451f"/></radialGradient></defs><g><ellipse cx="34" cy="44" rx="23" ry="11" fill="#17451f" opacity="0.34"/><path fill="url(#grassPatch01)" d="M8 43c3-8 8-14 15-15 3-8 15-10 22-4 7 1 12 7 12 15 3 8-6 16-19 15-9 4-23 0-26-7-2-1-3-2-4-4z"/><ellipse cx="22" cy="39" rx="13" ry="12" fill="#276a2c"/><ellipse cx="35" cy="34" rx="15" ry="12" fill="#3f9a3f" opacity="0.85"/><ellipse cx="47" cy="41" rx="11" ry="11" fill="#2f7d32"/><ellipse cx="31" cy="47" rx="18" ry="8" fill="#1f5a27" opacity="0.5"/><path d="M15 44c2-8 5-15 7-22M21 46c1-9 4-18 8-26M29 48c0-9 2-18 5-28M37 48c1-10 4-18 9-25M45 47c2-8 5-14 10-19M24 48c-2-8-5-13-10-18M34 49c-2-10-2-17 0-25M42 49c-1-8 0-15 4-21" stroke="#a6d96a" stroke-width="2" stroke-linecap="round" opacity="0.75" fill="none"/><path d="M18 45c1-6 3-11 6-16M27 47c1-7 3-13 7-18M39 47c2-7 5-12 10-16M51 43c-3-5-6-8-10-10" stroke="#12381a" stroke-width="2" stroke-linecap="round" opacity="0.42" fill="none"/><g><circle cx="24" cy="29" r="1.7" fill="#6ab7ff"/><circle cx="21.8" cy="29" r="1.1" fill="#9bd2ff"/><circle cx="26.2" cy="29" r="1.1" fill="#9bd2ff"/><circle cx="24" cy="26.8" r="1.1" fill="#9bd2ff"/><circle cx="24" cy="31.2" r="1.1" fill="#9bd2ff"/><circle cx="24" cy="29" r="0.6" fill="#d7ef7a"/></g><g><circle cx="45" cy="34" r="1.7" fill="#7d6aff"/><circle cx="42.8" cy="34" r="1.1" fill="#a99bff"/><circle cx="47.2" cy="34" r="1.1" fill="#a99bff"/><circle cx="45" cy="31.8" r="1.1" fill="#a99bff"/><circle cx="45" cy="36.2" r="1.1" fill="#a99bff"/><circle cx="45" cy="34" r="0.6" fill="#d7ef7a"/></g><circle cx="34" cy="26" r="1.4" fill="#d7ef7a"/><circle cx="16" cy="40" r="1.2" fill="#a6d96a"/><circle cx="53" cy="42" r="1.2" fill="#d7ef7a"/></g></svg>