<svg xmlns="http://www.w3.org/2000/svg" viewBox="0 0 64 64"><defs><radialGradient id="bushFlower01" cx="32%" cy="24%" r="75%"><stop offset="0%" stop-color="#3f9a3f"/><stop offset="58%" stop-color="#2f7d32"/><stop offset="100%" stop-color="#17451f"/></radialGradient></defs><g><ellipse cx="36" cy="42" rx="22" ry="15" fill="#17451f" opacity="0.38"/><path fill="url(#bushFlower01)" d="M9 34c-4-8 2-16 11-16 3-9 17-12 25-4 9-1 15 7 12 16 6 6 2 17-8 19-4 8-18 10-25 3-8 4-19-3-16-13-2-1-2-3 1-5z"/><ellipse cx="19" cy="31" rx="11" ry="12" fill="#276a2c"/><ellipse cx="31" cy="22" rx="13" ry="10" fill="#3f9a3f"/><ellipse cx="45" cy="32" rx="12" ry="13" fill="#2f7d32"/><ellipse cx="32" cy="43" rx="16" ry="12" fill="#2f7d32"/><ellipse cx="47" cy="45" rx="9" ry="8" fill="#1f5a27" opacity="0.75"/><ellipse cx="18" cy="43" rx="10" ry="9" fill="#1f5a27" opacity="0.55"/><path d="M16 37c4-2 8-2 12 1M31 30c5-2 10-1 14 2M25 46c5 1 9 0 13-3M42 42c3-1 6-3 8-6" stroke="#12381a" stroke-width="2" stroke-linecap="round" opacity="0.48" fill="none"/><g><circle cx="21" cy="27" r="2" fill="#ff76b6"/><circle cx="18" cy="27" r="1.5" fill="#ff9dca"/><circle cx="24" cy="27" r="1.5" fill="#ff9dca"/><circle cx="21" cy="24" r="1.5" fill="#ff9dca"/><circle cx="21" cy="30" r="1.5" fill="#ff9dca"/><circle cx="21" cy="27" r="0.8" fill="#d7ef7a"/></g><g><circle cx="42" cy="25" r="1.8" fill="#ffd84d"/><circle cx="39.5" cy="25" r="1.3" fill="#fff07a"/><circle cx="44.5" cy="25" r="1.3" fill="#fff07a"/><circle cx="42" cy="22.5" r="1.3" fill="#fff07a"/><circle cx="42" cy="27.5" r="1.3" fill="#fff07a"/><circle cx="42" cy="25" r="0.7" fill="#a65b1f"/></g><g><circle cx="33" cy="49" r="1.7" fill="#d7ef7a"/><circle cx="50" cy="38" r="1.4" fill="#a6d96a"/><circle cx="27" cy="20" r="1.5" fill="#d7ef7a"/><circle cx="15" cy="40" r="1.3" fill="#a6d96a"/></g></g></svg>