<svg xmlns="http://www.w3.org/2000/svg" viewBox="0 0 64 64"><defs><radialGradient id="bushSpiky01" cx="30%" cy="22%" r="78%"><stop offset="0%" stop-color="#3f9a3f"/><stop offset="58%" stop-color="#2f7d32"/><stop offset="100%" stop-color="#17451f"/></radialGradient></defs><g><path d="M15 49c8 8 26 9 37-2 5-5 5-12 2-17-4-8-13-16-25-16-12 1-20 8-22 18-1 6 2 13 8 17z" fill="#17451f" opacity="0.36"/><path fill="url(#bushSpiky01)" d="M9 31l6-4-1-8 8 2 5-8 7 6 8-7 4 9 9-1-2 9 7 5-7 5 2 9-9 1-4 8-8-6-8 6-5-8-9 1 2-9-7-5z"/><circle cx="20" cy="30" r="11" fill="#276a2c"/><circle cx="31" cy="24" r="12" fill="#3f9a3f" opacity="0.85"/><circle cx="43" cy="31" r="12" fill="#2f7d32"/><circle cx="39" cy="44" r="13" fill="#1f5a27" opacity="0.68"/><circle cx="25" cy="43" r="12" fill="#2f7d32"/><circle cx="32" cy="35" r="14" fill="#2f7d32" opacity="0.9"/><circle cx="18" cy="27" r="1.6" fill="#d7ef7a"/><circle cx="29" cy="20" r="1.8" fill="#a6d96a"/><circle cx="42" cy="26" r="1.6" fill="#d7ef7a"/><circle cx="47" cy="39" r="1.7" fill="#a6d96a"/><circle cx="34" cy="49" r="1.6" fill="#d7ef7a"/><circle cx="22" cy="42" r="1.4" fill="#a6d96a"/><circle cx="31" cy="34" r="1.3" fill="#d7ef7a"/><path d="M18 34c3-3 8-4 12-2M34 28c4 0 7 2 10 5M38 44c4-1 7-4 9-8M21 44c4 1 8 0 11-2M24 24c3-2 7-2 10 0" stroke="#12381a" stroke-width="2" stroke-linecap="round" opacity="0.48" fill="none"/></g></svg>