<svg xmlns="http://www.w3.org/2000/svg" viewBox="0 0 64 64"><defs><radialGradient id="grassBush10" cx="32%" cy="24%" r="78%"><stop offset="0%" stop-color="#4ba947"/><stop offset="55%" stop-color="#2f7d32"/><stop offset="100%" stop-color="#17451f"/></radialGradient></defs><g><path d="M12 53c7 5 31 6 41-3 3-3 4-7 2-11-7 8-34 11-45 4-2 4-1 7 2 10z" fill="#17451f" opacity="0.38"/><path fill="url(#grassBush10)" d="M8 55C10 47 12 39 17 31C15 23 18 15 24 8C28 14 30 21 30 29C33 20 38 13 47 8C47 19 45 27 41 34C48 28 54 25 58 23C56 34 51 43 43 50C35 59 19 60 8 55Z"/><path d="M11 54c5-14 11-25 21-37M20 57c1-15 4-29 11-45M30 58c1-16 6-31 17-47M40 56c6-13 10-22 18-31M50 50c-7 2-15 1-22-3M17 47c9 4 20 5 31 1" stroke="#a6d96a" stroke-width="2.2" stroke-linecap="round" opacity="0.72" fill="none"/><path d="M14 51c2-11 6-20 13-29M26 55c0-12 2-23 8-35M37 55c4-12 8-22 16-29M47 47c-5-5-10-8-16-9" stroke="#12381a" stroke-width="2.1" stroke-linecap="round" opacity="0.5" fill="none"/><g><circle cx="22" cy="32" r="1.7" fill="#ff7ecb"/><circle cx="20" cy="32" r="1" fill="#ffb3dd"/><circle cx="24" cy="32" r="1" fill="#ffb3dd"/><circle cx="22" cy="30" r="1" fill="#ffb3dd"/><circle cx="22" cy="34" r="1" fill="#ffb3dd"/><circle cx="22" cy="32" r="0.55" fill="#d7ef7a"/></g><g><circle cx="43" cy="35" r="1.7" fill="#ffd84d"/><circle cx="41" cy="35" r="1" fill="#fff07a"/><circle cx="45" cy="35" r="1" fill="#fff07a"/><circle cx="43" cy="33" r="1" fill="#fff07a"/><circle cx="43" cy="37" r="1" fill="#fff07a"/><circle cx="43" cy="35" r="0.55" fill="#7a4314"/></g></g></svg>