<svg xmlns="http://www.w3.org/2000/svg" viewBox="0 0 500 500" role="img" aria-labelledby="title desc">
  <title id="title">Tank shot</title>
  <desc id="desc">Orange neon shot ability icon showing a glowing bullet shell with bright speed trails and an electric circular aura.</desc>
  <defs>
    <radialGradient id="coreGradient" cx="50%" cy="50%" r="50%">
      <stop offset="0%" stop-color="#2a0e00" stop-opacity="0.96" />
      <stop offset="62%" stop-color="#150600" stop-opacity="0.95" />
      <stop offset="100%" stop-color="#050100" stop-opacity="0.2" />
    </radialGradient>

    <linearGradient id="shotTrail" x1="70" y1="0" x2="350" y2="0" gradientUnits="userSpaceOnUse">
      <stop offset="0%" stop-color="#ff6600" stop-opacity="0" />
      <stop offset="34%" stop-color="#ff9900" stop-opacity="0.75" />
      <stop offset="100%" stop-color="#fff5cc" stop-opacity="0.98" />
    </linearGradient>

    <linearGradient id="bulletBody" x1="0" y1="0" x2="0.3" y2="1">
      <stop offset="0%" stop-color="#fff5cc" />
      <stop offset="25%" stop-color="#ffcc44" />
      <stop offset="65%" stop-color="#cc5500" />
      <stop offset="100%" stop-color="#5a1a00" />
    </linearGradient>

    <linearGradient id="noseGrad" x1="0" y1="1" x2="0" y2="0">
      <stop offset="0%" stop-color="#ffbb33" />
      <stop offset="60%" stop-color="#ffee88" />
      <stop offset="100%" stop-color="#ffffff" />
    </linearGradient>

    <filter id="wideGlow" x="-70%" y="-70%" width="240%" height="240%">
      <feGaussianBlur stdDeviation="18" result="blur" />
      <feColorMatrix
        in="blur"
        type="matrix"
        values="1 0 0 0 0
                0 0.45 0 0 0
                0 0 0 0 0
                0 0 0 0.9 0"
        result="orangeBlur"
      />
      <feMerge>
        <feMergeNode in="orangeBlur" />
        <feMergeNode in="SourceGraphic" />
      </feMerge>
    </filter>

    <filter id="lineGlow" x="-45%" y="-45%" width="190%" height="190%">
      <feGaussianBlur stdDeviation="4" result="blur" />
      <feMerge>
        <feMergeNode in="blur" />
        <feMergeNode in="SourceGraphic" />
      </feMerge>
    </filter>

    <filter id="bulletShadow" x="-45%" y="-45%" width="190%" height="190%">
      <feDropShadow dx="-8" dy="14" stdDeviation="8" flood-color="#000000" flood-opacity="0.55" />
      <feDropShadow dx="0" dy="0" stdDeviation="5" flood-color="#ff7700" flood-opacity="0.6" />
    </filter>
  </defs>

  <circle cx="250" cy="250" r="166" fill="none" stroke="#ff8800" stroke-width="22" opacity="0.7" filter="url(#wideGlow)" />
  <circle cx="250" cy="250" r="137" fill="url(#coreGradient)" opacity="0.98" />

  <g fill="none" stroke-linecap="square">
    <circle cx="250" cy="250" r="166" stroke="#ff9900" stroke-width="8" filter="url(#lineGlow)" />
    <circle cx="250" cy="250" r="137" stroke="#fff5cc" stroke-width="2" opacity="0.94" />
  </g>

  <g stroke="#ff9900" stroke-width="4" stroke-linecap="square" filter="url(#lineGlow)">
    <path d="M 250 46 L 250 73" />
    <path d="M 250 427 L 250 454" />
    <path d="M 46 250 L 73 250" />
    <path d="M 427 250 L 454 250" />
    <path d="M 105.8 105.8 L 124.9 124.9" />
    <path d="M 375.1 375.1 L 394.2 394.2" />
    <path d="M 394.2 105.8 L 375.1 124.9" />
    <path d="M 124.9 375.1 L 105.8 394.2" />
  </g>

  <g filter="url(#lineGlow)">
    <path d="M 82 317 C 148 296 191 260 229 205" fill="none" stroke="url(#shotTrail)" stroke-width="28" stroke-linecap="round" opacity="0.78" />
    <path d="M 91 249 C 153 241 202 218 247 174" fill="none" stroke="url(#shotTrail)" stroke-width="15" stroke-linecap="round" opacity="0.68" />
    <path d="M 128 360 C 182 323 226 284 267 230" fill="none" stroke="url(#shotTrail)" stroke-width="11" stroke-linecap="round" opacity="0.58" />
    <path d="M 135 174 L 219 167 L 191 198 Z" fill="#ff8800" opacity="0.24" />
    <path d="M 98 338 L 184 315 L 162 355 Z" fill="#ff8800" opacity="0.20" />
  </g>

  <g transform="rotate(-34 258 246)" filter="url(#bulletShadow)">
    <ellipse cx="254" cy="325" rx="105" ry="28" fill="#000000" opacity="0.32" />

    <rect x="218" y="192" width="76" height="148" rx="14" fill="url(#bulletBody)" stroke="#3a1000" stroke-width="7" />

    <path d="M 218 200 C 218 195 227 115 254 80 C 281 115 290 195 290 200 Z"
      fill="url(#noseGrad)" stroke="#cc5500" stroke-width="5" stroke-linejoin="round" />

    <rect x="213" y="332" width="86" height="18" rx="7" fill="#5a1a00" stroke="#3a1000" stroke-width="5" />

    <rect x="218" y="285" width="76" height="15" rx="4" fill="#8a3800" stroke="#3a1000" stroke-width="3" />
    <rect x="218" y="307" width="76" height="10" rx="3" fill="#6a2600" stroke="#3a1000" stroke-width="2" />

    <path d="M 230 205 L 230 330" fill="none" stroke="#fff5cc" stroke-width="6" stroke-linecap="round" opacity="0.48" />

    <circle cx="254" cy="80" r="24" fill="#ffee88" opacity="0.52" filter="url(#lineGlow)" />
    <circle cx="254" cy="80" r="10" fill="#ffffff" opacity="0.86" />
  </g>

  <g filter="url(#lineGlow)" opacity="0.88">
    <path d="M 310 145 C 355 168 388 199 420 247" fill="none" stroke="#fff5cc" stroke-width="5" stroke-linecap="round" opacity="0.76" />
    <path d="M 328 352 C 374 323 408 281 426 230" fill="none" stroke="#ff9900" stroke-width="7" stroke-linecap="round" opacity="0.58" />
  </g>
</svg>
