<svg xmlns="http://www.w3.org/2000/svg" viewBox="0 0 512 712" width="512" height="712">
  <defs>
    <radialGradient id="turretRed" cx="40%" cy="28%" r="75%">
      <stop offset="0%" stop-color="var(--tank-highlight)"/>
      <stop offset="35%" stop-color="var(--tank-color)"/>
      <stop offset="72%" stop-color="var(--tank-shadow)"/>
      <stop offset="100%" stop-color="var(--tank-deep-shadow)"/>
    </radialGradient>
    <linearGradient id="barrelRed" x1="0" x2="0" y1="0" y2="1">
      <stop offset="0%" stop-color="var(--tank-highlight)"/>
      <stop offset="45%" stop-color="var(--tank-color)"/>
      <stop offset="100%" stop-color="var(--tank-deep-shadow)"/>
    </linearGradient>
    <linearGradient id="darkSteel" x1="0" x2="0" y1="0" y2="1">
      <stop offset="0%" stop-color="#4d5058"/>
      <stop offset="40%" stop-color="#2b2e36"/>
      <stop offset="100%" stop-color="#171a20"/>
    </linearGradient>
    <linearGradient id="silver" x1="0" x2="1" y1="0" y2="0">
      <stop offset="0%" stop-color="#9a9da5"/>
      <stop offset="30%" stop-color="#e4e6ea"/>
      <stop offset="60%" stop-color="#7e8188"/>
      <stop offset="100%" stop-color="#494d55"/>
    </linearGradient>
    <filter id="shadow" x="-40%" y="-40%" width="180%" height="180%">
      <feDropShadow dx="0" dy="18" stdDeviation="14" flood-color="#000" flood-opacity="0.32"/>
    </filter>
    <style>
      :root {
        --tank-color: #e54637;
        --tank-highlight: color-mix(in srgb, var(--tank-color), white 38%);
        --tank-soft-highlight: color-mix(in srgb, var(--tank-color), white 64%);
        --tank-shadow: color-mix(in srgb, var(--tank-color), black 28%);
        --tank-deep-shadow: color-mix(in srgb, var(--tank-color), black 58%);
        --tank-outline: color-mix(in srgb, var(--tank-color), black 86%);
      }
      .line { stroke:var(--tank-outline); stroke-width:4; stroke-linejoin:round; }
      .fine { stroke:var(--tank-outline); stroke-width:2.2; stroke-linejoin:round; }
      .scratch { stroke:var(--tank-soft-highlight); stroke-opacity:.55; stroke-width:2.4; stroke-linecap:round; }
      .scratch2 { stroke:var(--tank-deep-shadow); stroke-opacity:.9; stroke-width:1.8; stroke-linecap:round; }
    </style>
  </defs>

  <g filter="url(#shadow)">
    <!-- Barrel group -->
    <g transform="translate(256 330)">
      <rect x="-34" y="-14" width="68" height="58" rx="20" fill="url(#barrelRed)" class="line"/>
      <rect x="-31" y="38" width="62" height="146" rx="18" fill="url(#barrelRed)" class="line"/>
      <rect x="-36" y="168" width="72" height="28" rx="12" fill="var(--tank-shadow)" class="line"/>
      <rect x="-24" y="190" width="48" height="100" rx="15" fill="url(#barrelRed)" class="line"/>
      <rect x="-29" y="276" width="58" height="42" rx="15" fill="#2e3138" class="line"/>
      <circle cx="0" cy="298" r="16" fill="#090b0f" class="fine"/>
      <path d="M-21 58 h42" stroke="var(--tank-soft-highlight)" stroke-opacity=".55" stroke-width="3.8" stroke-linecap="round"/>
      <path d="M-15 211 h30" stroke="var(--tank-soft-highlight)" stroke-opacity=".4" stroke-width="3.4" stroke-linecap="round"/>
      <path d="M-9 92 v74" stroke="var(--tank-highlight)" stroke-opacity=".28" stroke-width="5"/>
      <path d="M-7 214 v48" stroke="var(--tank-highlight)" stroke-opacity=".24" stroke-width="4"/>
      <path d="M-15 252 l10 -7" class="scratch"/>
    </g>

    <!-- Turret base -->
    <g>
      <path d="M138 136 L198 90 L314 90 L374 136 L398 240 L350 308 L256 334 L162 308 L114 240 Z" fill="url(#turretRed)" class="line"/>
      <path d="M166 156 L210 118 L302 118 L346 156 L366 234 L330 286 L256 308 L182 286 L146 234 Z" fill="#17181d" class="fine"/>
      <path d="M180 136 L332 136 L360 168 L332 210 L180 210 L152 168 Z" fill="var(--tank-color)" class="fine"/>
      <path d="M198 210 L314 210 L330 258 L256 294 L182 258 Z" fill="url(#darkSteel)" class="fine"/>
    </g>

    <!-- Central hatch -->
    <g>
      <path d="M206 126 L306 126 L340 162 L322 226 L256 252 L190 226 L172 162 Z" fill="url(#darkSteel)" class="line"/>
      <polygon points="256,146 288,160 298,194 280,226 256,236 232,226 214,194 224,160" fill="#6f727b" class="fine"/>
      <circle cx="256" cy="191" r="20" fill="#91949c" class="fine"/>
      <circle cx="256" cy="191" r="6" fill="#4b4f56"/>
      <path d="M256 185 v26" class="fine" fill="none"/>
      <path d="M246 191 h20" class="fine" fill="none"/>
    </g>

    <!-- Side pipes -->
    <g fill="none" stroke="url(#silver)" stroke-width="8" stroke-linecap="round" stroke-linejoin="round">
      <path d="M204 164 v56 q0 10 10 10 h22"/>
      <path d="M308 164 v56 q0 10 -10 10 h-22"/>
    </g>

    <!-- Rear vent tower -->
    <g>
      <path d="M229 58 L283 58 L296 90 L296 134 L216 134 L216 90 Z" fill="url(#turretRed)" class="line"/>
      <path d="M240 66 L272 66 L282 90 L282 125 L230 125 L230 90 Z" fill="var(--tank-shadow)" class="fine"/>
      <rect x="242" y="76" width="28" height="38" rx="6" fill="#1a1d22" class="fine"/>
      <path d="M246 84 h20 M246 92 h20 M246 100 h20" class="fine" fill="none"/>
    </g>

    <!-- Highlights and wear -->
    <path d="M188 139 L321 139" stroke="var(--tank-soft-highlight)" stroke-opacity=".6" stroke-width="4.5" stroke-linecap="round"/>
    <path d="M218 125 L294 125" stroke="var(--tank-soft-highlight)" stroke-opacity=".5" stroke-width="3.8" stroke-linecap="round"/>
    <path d="M175 220 q81 18 162 0" stroke="var(--tank-highlight)" stroke-opacity=".15" stroke-width="4" fill="none"/>

    <g>
      <path d="M207 145 l12 -6" class="scratch"/>
      <path d="M300 144 l9 -5" class="scratch"/>
      <path d="M175 186 l8 12" class="scratch2"/>
      <path d="M326 224 l10 8" class="scratch2"/>
      <path d="M208 261 l10 -7" class="scratch"/>
      <path d="M290 262 l11 7" class="scratch2"/>
      <path d="M246 112 l10 -4" class="scratch"/>
    </g>
  </g>
</svg>
