<svg xmlns="http://www.w3.org/2000/svg" viewBox="0 0 64 64" width="256" height="256">
  <defs>
    <linearGradient id="v3LeafLight" x1="0" y1="0" x2="0" y2="1">
      <stop offset="0" stop-color="#66cb4e"/>
      <stop offset="0.6" stop-color="#379937"/>
      <stop offset="1" stop-color="#1f682a"/>
    </linearGradient>
    <linearGradient id="v3LeafMid" x1="0" y1="0" x2="1" y2="1">
      <stop offset="0" stop-color="#45ab3f"/>
      <stop offset="1" stop-color="#176022"/>
    </linearGradient>
    <linearGradient id="v3LeafDark" x1="0" y1="0" x2="1" y2="1">
      <stop offset="0" stop-color="#246f2d"/>
      <stop offset="1" stop-color="#0f3d19"/>
    </linearGradient>
    <filter id="v3SoftShadow" x="-8%" y="-8%" width="116%" height="116%">
      <feDropShadow dx="0" dy="1" stdDeviation="0.35" flood-color="#071b0b" flood-opacity="0.35"/>
    </filter>
  </defs>

  <g filter="url(#v3SoftShadow)">
    <rect x="5" y="5" width="54" height="54" rx="2.6" fill="#123e1a"/>

    <!-- Border -->
    <g>
      <circle cx="7" cy="7" r="4.8" fill="url(#v3LeafDark)"/>
      <circle cx="13" cy="6" r="4.9" fill="url(#v3LeafMid)"/>
      <circle cx="20" cy="5.8" r="5.1" fill="url(#v3LeafLight)"/>
      <circle cx="28" cy="5.5" r="5.3" fill="url(#v3LeafMid)"/>
      <circle cx="36" cy="5.8" r="5.1" fill="url(#v3LeafLight)"/>
      <circle cx="44" cy="6" r="4.9" fill="url(#v3LeafMid)"/>
      <circle cx="51" cy="5.9" r="5" fill="url(#v3LeafLight)"/>
      <circle cx="57" cy="7" r="4.8" fill="url(#v3LeafDark)"/>

      <circle cx="7" cy="57" r="4.8" fill="url(#v3LeafDark)"/>
      <circle cx="13" cy="58" r="4.9" fill="url(#v3LeafMid)"/>
      <circle cx="20" cy="58.2" r="5.1" fill="url(#v3LeafLight)"/>
      <circle cx="28" cy="58.5" r="5.3" fill="url(#v3LeafMid)"/>
      <circle cx="36" cy="58.2" r="5.1" fill="url(#v3LeafLight)"/>
      <circle cx="44" cy="58" r="4.9" fill="url(#v3LeafMid)"/>
      <circle cx="51" cy="58.1" r="5" fill="url(#v3LeafLight)"/>
      <circle cx="57" cy="57" r="4.8" fill="url(#v3LeafDark)"/>

      <circle cx="5.8" cy="14" r="4.9" fill="url(#v3LeafMid)"/>
      <circle cx="5.6" cy="22" r="5.1" fill="url(#v3LeafLight)"/>
      <circle cx="5.4" cy="30" r="5.1" fill="url(#v3LeafMid)"/>
      <circle cx="5.6" cy="39" r="5.2" fill="url(#v3LeafLight)"/>
      <circle cx="5.8" cy="49" r="5" fill="url(#v3LeafDark)"/>

      <circle cx="58.2" cy="14" r="4.9" fill="url(#v3LeafMid)"/>
      <circle cx="58.4" cy="22" r="5.1" fill="url(#v3LeafLight)"/>
      <circle cx="58.6" cy="30" r="5.1" fill="url(#v3LeafMid)"/>
      <circle cx="58.4" cy="39" r="5.2" fill="url(#v3LeafLight)"/>
      <circle cx="58.2" cy="49" r="5" fill="url(#v3LeafDark)"/>
    </g>

    <!-- Interior -->
    <g opacity="0.98">
      <circle cx="14" cy="15" r="5.9" fill="url(#v3LeafLight)"/>
      <circle cx="24" cy="14" r="7.1" fill="url(#v3LeafMid)"/>
      <circle cx="36" cy="15" r="6.4" fill="url(#v3LeafLight)"/>
      <circle cx="47" cy="15" r="6.8" fill="url(#v3LeafMid)"/>

      <circle cx="13" cy="25" r="6.4" fill="url(#v3LeafMid)"/>
      <circle cx="24" cy="25" r="8.4" fill="url(#v3LeafLight)"/>
      <circle cx="38" cy="25" r="7.6" fill="url(#v3LeafMid)"/>
      <circle cx="49" cy="25" r="6.8" fill="url(#v3LeafLight)"/>

      <circle cx="15" cy="37" r="7" fill="url(#v3LeafLight)"/>
      <circle cx="28" cy="36" r="9" fill="url(#v3LeafMid)"/>
      <circle cx="42" cy="37" r="7.9" fill="url(#v3LeafLight)"/>
      <circle cx="51" cy="37" r="6.2" fill="url(#v3LeafMid)"/>

      <circle cx="15" cy="48" r="6.1" fill="url(#v3LeafDark)"/>
      <circle cx="26" cy="48" r="7.1" fill="url(#v3LeafLight)"/>
      <circle cx="38" cy="48" r="7.3" fill="url(#v3LeafMid)"/>
      <circle cx="49" cy="48" r="6.2" fill="url(#v3LeafLight)"/>
    </g>

    <!-- Small interior leaves -->
    <g opacity="0.92">
      <circle cx="10" cy="10" r="2.9" fill="#2e8933"/>
      <circle cx="18" cy="10" r="3.1" fill="#40a63b"/>
      <circle cx="31" cy="11" r="3.1" fill="#2d8030"/>
      <circle cx="42" cy="10" r="3.3" fill="#4eb448"/>
      <circle cx="53" cy="10" r="3" fill="#2d7f2f"/>

      <circle cx="18" cy="20" r="3.1" fill="#61bf4a"/>
      <circle cx="31" cy="21" r="3.5" fill="#2b7b2d"/>
      <circle cx="44" cy="20" r="3.1" fill="#55b947"/>

      <circle cx="19" cy="31" r="3.6" fill="#43a53d"/>
      <circle cx="34" cy="31" r="3.9" fill="#2e8331"/>
      <circle cx="47" cy="31" r="3.5" fill="#58b94a"/>

      <circle cx="18" cy="43" r="3.1" fill="#60c148"/>
      <circle cx="33" cy="43" r="3.4" fill="#328834"/>
      <circle cx="46" cy="43" r="3.1" fill="#54b74a"/>

      <circle cx="20" cy="54" r="3" fill="#3f9f3b"/>
      <circle cx="32" cy="54" r="3.1" fill="#2c7a2d"/>
      <circle cx="44" cy="54" r="3" fill="#51b348"/>
    </g>

    <!-- Shadow arcs -->
    <g fill="none" stroke="#103817" stroke-width="1.45" stroke-linecap="round" opacity="0.37">
      <path d="M11 18c3-2 6-2 9 0"/>
      <path d="M27 18c3-2 6.7-2 9.7 0"/>
      <path d="M42 18c3-2 6-2 9 0"/>
      <path d="M14 30c3-2 6.5-2 9.5 0"/>
      <path d="M34 29c3.3-2.2 7-2.2 10.3 0"/>
      <path d="M17 42c3-2 6.5-2 9.5 0"/>
      <path d="M37 42c3-2 6.5-2 9.5 0"/>
      <path d="M23 52c3-2 6.5-2 9.5 0"/>
    </g>

    <!-- Highlights -->
    <g fill="#cde963" opacity="0.94">
      <circle cx="13" cy="11.5" r="1"/>
      <circle cx="24" cy="10" r="1"/>
      <circle cx="37" cy="11" r="1.1"/>
      <circle cx="49" cy="11.2" r="1"/>
      <circle cx="11" cy="24" r="1"/>
      <circle cx="23" cy="25" r="1"/>
      <circle cx="38" cy="24" r="1.1"/>
      <circle cx="50" cy="24" r="1"/>
      <circle cx="14" cy="36" r="1"/>
      <circle cx="28" cy="35" r="1.1"/>
      <circle cx="42" cy="36" r="1"/>
      <circle cx="52" cy="36" r="1"/>
      <circle cx="15" cy="48" r="1"/>
      <circle cx="27" cy="49" r="1"/>
      <circle cx="39" cy="48" r="1.05"/>
      <circle cx="49" cy="49" r="1"/>
    </g>

    <!-- Flowers -->
    <g>
      <circle cx="16" cy="17" r="1.05" fill="#ff9b17"/>
      <circle cx="14.2" cy="17" r="1.3" fill="#ffcf6b"/>
      <circle cx="17.8" cy="17" r="1.3" fill="#ffcf6b"/>
      <circle cx="16" cy="15.2" r="1.3" fill="#ffcf6b"/>
      <circle cx="16" cy="18.8" r="1.3" fill="#ffcf6b"/>
    </g>

    <g>
      <circle cx="43" cy="18" r="1.05" fill="#ff4a89"/>
      <circle cx="41.2" cy="18" r="1.3" fill="#ff97be"/>
      <circle cx="44.8" cy="18" r="1.3" fill="#ff97be"/>
      <circle cx="43" cy="16.2" r="1.3" fill="#ff97be"/>
      <circle cx="43" cy="19.8" r="1.3" fill="#ff97be"/>
    </g>

    <g>
      <circle cx="24" cy="30" r="1.05" fill="#8a61ff"/>
      <circle cx="22.2" cy="30" r="1.3" fill="#c8b0ff"/>
      <circle cx="25.8" cy="30" r="1.3" fill="#c8b0ff"/>
      <circle cx="24" cy="28.2" r="1.3" fill="#c8b0ff"/>
      <circle cx="24" cy="31.8" r="1.3" fill="#c8b0ff"/>
    </g>

    <g>
      <circle cx="46" cy="31" r="1.05" fill="#f4741c"/>
      <circle cx="44.2" cy="31" r="1.3" fill="#ffbc86"/>
      <circle cx="47.8" cy="31" r="1.3" fill="#ffbc86"/>
      <circle cx="46" cy="29.2" r="1.3" fill="#ffbc86"/>
      <circle cx="46" cy="32.8" r="1.3" fill="#ffbc86"/>
    </g>

    <g>
      <circle cx="18" cy="45" r="1.05" fill="#ff6b9d"/>
      <circle cx="16.2" cy="45" r="1.3" fill="#ffc0d6"/>
      <circle cx="19.8" cy="45" r="1.3" fill="#ffc0d6"/>
      <circle cx="18" cy="43.2" r="1.3" fill="#ffc0d6"/>
      <circle cx="18" cy="46.8" r="1.3" fill="#ffc0d6"/>
    </g>

    <g>
      <circle cx="36" cy="46" r="1.05" fill="#f2b41a"/>
      <circle cx="34.2" cy="46" r="1.3" fill="#fff18c"/>
      <circle cx="37.8" cy="46" r="1.3" fill="#fff18c"/>
      <circle cx="36" cy="44.2" r="1.3" fill="#fff18c"/>
      <circle cx="36" cy="47.8" r="1.3" fill="#fff18c"/>
    </g>

    <g>
      <circle cx="48" cy="49" r="0.95" fill="#4d8fff"/>
      <circle cx="46.4" cy="49" r="1.08" fill="#b6d0ff"/>
      <circle cx="49.6" cy="49" r="1.08" fill="#b6d0ff"/>
      <circle cx="48" cy="47.4" r="1.08" fill="#b6d0ff"/>
      <circle cx="48" cy="50.6" r="1.08" fill="#b6d0ff"/>
    </g>
  </g>
</svg>