<svg xmlns="http://www.w3.org/2000/svg" viewBox="0 0 64 64" width="256" height="256">
  <defs>
    <linearGradient id="v2LeafLight" x1="0" y1="0" x2="0" y2="1">
      <stop offset="0" stop-color="#61c949"/>
      <stop offset="0.58" stop-color="#359635"/>
      <stop offset="1" stop-color="#1c6427"/>
    </linearGradient>
    <linearGradient id="v2LeafMid" x1="0" y1="0" x2="1" y2="1">
      <stop offset="0" stop-color="#46ae3f"/>
      <stop offset="1" stop-color="#186220"/>
    </linearGradient>
    <linearGradient id="v2LeafDark" x1="0" y1="0" x2="1" y2="1">
      <stop offset="0" stop-color="#206f2c"/>
      <stop offset="1" stop-color="#0e3b18"/>
    </linearGradient>
    <filter id="v2SoftShadow" x="-8%" y="-8%" width="116%" height="116%">
      <feDropShadow dx="0" dy="1" stdDeviation="0.35" flood-color="#071b0b" flood-opacity="0.35"/>
    </filter>
  </defs>

  <g filter="url(#v2SoftShadow)">
    <rect x="5" y="5" width="54" height="54" rx="2.2" fill="#123d1a"/>

    <!-- Chunkier border -->
    <g>
      <rect x="7" y="4.8" width="8" height="10" rx="4" fill="url(#v2LeafDark)"/>
      <rect x="14" y="4.5" width="10" height="10.5" rx="4.2" fill="url(#v2LeafMid)"/>
      <rect x="23" y="4.7" width="10" height="10.3" rx="4.2" fill="url(#v2LeafLight)"/>
      <rect x="32" y="4.5" width="10" height="10.5" rx="4.2" fill="url(#v2LeafMid)"/>
      <rect x="41" y="4.7" width="10" height="10.3" rx="4.2" fill="url(#v2LeafLight)"/>
      <rect x="50" y="4.8" width="7" height="10" rx="4" fill="url(#v2LeafDark)"/>

      <rect x="7" y="49.2" width="8" height="10" rx="4" fill="url(#v2LeafDark)"/>
      <rect x="14" y="49" width="10" height="10.5" rx="4.2" fill="url(#v2LeafMid)"/>
      <rect x="23" y="49.2" width="10" height="10.3" rx="4.2" fill="url(#v2LeafLight)"/>
      <rect x="32" y="49" width="10" height="10.5" rx="4.2" fill="url(#v2LeafMid)"/>
      <rect x="41" y="49.2" width="10" height="10.3" rx="4.2" fill="url(#v2LeafLight)"/>
      <rect x="50" y="49.2" width="7" height="10" rx="4" fill="url(#v2LeafDark)"/>

      <rect x="4.7" y="14" width="10" height="9" rx="4.2" fill="url(#v2LeafMid)"/>
      <rect x="4.5" y="22" width="10.2" height="10" rx="4.2" fill="url(#v2LeafLight)"/>
      <rect x="4.7" y="31" width="10" height="10" rx="4.2" fill="url(#v2LeafMid)"/>
      <rect x="4.5" y="40" width="10.2" height="10" rx="4.2" fill="url(#v2LeafDark)"/>

      <rect x="49.3" y="14" width="10" height="9" rx="4.2" fill="url(#v2LeafMid)"/>
      <rect x="49.3" y="22" width="10.2" height="10" rx="4.2" fill="url(#v2LeafLight)"/>
      <rect x="49.3" y="31" width="10" height="10" rx="4.2" fill="url(#v2LeafMid)"/>
      <rect x="49.3" y="40" width="10.2" height="10" rx="4.2" fill="url(#v2LeafDark)"/>
    </g>

    <!-- Center foliage -->
    <g opacity="0.98">
      <circle cx="16" cy="16" r="6.2" fill="url(#v2LeafMid)"/>
      <circle cx="26" cy="16" r="7.2" fill="url(#v2LeafLight)"/>
      <circle cx="39" cy="16" r="6.6" fill="url(#v2LeafMid)"/>
      <circle cx="48" cy="18" r="5.8" fill="url(#v2LeafLight)"/>

      <circle cx="14" cy="27" r="6.5" fill="url(#v2LeafLight)"/>
      <circle cx="24" cy="26" r="7.8" fill="url(#v2LeafMid)"/>
      <circle cx="35" cy="27" r="8.6" fill="url(#v2LeafLight)"/>
      <circle cx="47" cy="27" r="6.8" fill="url(#v2LeafMid)"/>

      <circle cx="16" cy="39" r="7.1" fill="url(#v2LeafMid)"/>
      <circle cx="27" cy="39" r="8.1" fill="url(#v2LeafLight)"/>
      <circle cx="39" cy="39" r="7.7" fill="url(#v2LeafMid)"/>
      <circle cx="48" cy="40" r="6.4" fill="url(#v2LeafLight)"/>

      <circle cx="16" cy="49" r="5.9" fill="url(#v2LeafDark)"/>
      <circle cx="28" cy="48" r="6.8" fill="url(#v2LeafMid)"/>
      <circle cx="39" cy="48" r="6.6" fill="url(#v2LeafLight)"/>
      <circle cx="47" cy="48" r="5.8" fill="url(#v2LeafDark)"/>
    </g>

    <!-- Small foliage -->
    <g opacity="0.9">
      <circle cx="20" cy="12" r="2.9" fill="#3ea53b"/>
      <circle cx="32" cy="13" r="3.1" fill="#2f8431"/>
      <circle cx="44" cy="12" r="3" fill="#51b64b"/>
      <circle cx="10" cy="24" r="3.1" fill="#3ea73a"/>
      <circle cx="30" cy="22" r="3.4" fill="#2a7b2c"/>
      <circle cx="43" cy="23" r="3.1" fill="#55b849"/>
      <circle cx="21" cy="33" r="3.5" fill="#60c149"/>
      <circle cx="32" cy="34" r="3.7" fill="#318334"/>
      <circle cx="44" cy="35" r="3.3" fill="#4eaf45"/>
      <circle cx="21" cy="45" r="3.1" fill="#43a53d"/>
      <circle cx="34" cy="45" r="3.3" fill="#2c7b2d"/>
      <circle cx="43" cy="46" r="3.1" fill="#58ba49"/>
    </g>

    <!-- Arc shadows -->
    <g fill="none" stroke="#103717" stroke-width="1.45" stroke-linecap="round" opacity="0.38">
      <path d="M12 18c2.8-2 5.6-2 8.4 0"/>
      <path d="M26 20c3-2.2 6.5-2.2 9.5 0"/>
      <path d="M41 19c2.8-2 5.9-2 8.7 0"/>
      <path d="M14 31c3-2 6-2 9 0"/>
      <path d="M31 31c3.5-2.3 7.2-2.3 10.7 0"/>
      <path d="M17 44c3-2 6-2 9 0"/>
      <path d="M36 44c3-2 6.5-2 9.5 0"/>
    </g>

    <!-- Highlight dots -->
    <g fill="#d1eb68" opacity="0.92">
      <circle cx="13" cy="10" r="1.05"/>
      <circle cx="25" cy="11" r="1"/>
      <circle cx="39" cy="10" r="1.05"/>
      <circle cx="51" cy="11" r="1"/>
      <circle cx="10" cy="23" r="1"/>
      <circle cx="22" cy="26" r="1.05"/>
      <circle cx="36" cy="25" r="1.1"/>
      <circle cx="48" cy="26" r="1"/>
      <circle cx="15" cy="38" r="1"/>
      <circle cx="27" cy="36" r="1.05"/>
      <circle cx="40" cy="38" r="1.05"/>
      <circle cx="49" cy="39" r="1"/>
      <circle cx="19" cy="49" r="1"/>
      <circle cx="31" cy="48" r="1"/>
      <circle cx="43" cy="48" r="1.05"/>
    </g>

    <!-- Flowers -->
    <g>
      <circle cx="17" cy="18" r="1.05" fill="#ff8851"/>
      <circle cx="15.2" cy="18" r="1.3" fill="#ffc0a2"/>
      <circle cx="18.8" cy="18" r="1.3" fill="#ffc0a2"/>
      <circle cx="17" cy="16.2" r="1.3" fill="#ffc0a2"/>
      <circle cx="17" cy="19.8" r="1.3" fill="#ffc0a2"/>
    </g>

    <g>
      <circle cx="45" cy="18" r="1.05" fill="#f5b712"/>
      <circle cx="43.2" cy="18" r="1.3" fill="#fff08b"/>
      <circle cx="46.8" cy="18" r="1.3" fill="#fff08b"/>
      <circle cx="45" cy="16.2" r="1.3" fill="#fff08b"/>
      <circle cx="45" cy="19.8" r="1.3" fill="#fff08b"/>
    </g>

    <g>
      <circle cx="29" cy="28" r="1.05" fill="#9454ff"/>
      <circle cx="27.2" cy="28" r="1.3" fill="#c9a3ff"/>
      <circle cx="30.8" cy="28" r="1.3" fill="#c9a3ff"/>
      <circle cx="29" cy="26.2" r="1.3" fill="#c9a3ff"/>
      <circle cx="29" cy="29.8" r="1.3" fill="#c9a3ff"/>
    </g>

    <g>
      <circle cx="20" cy="40" r="1.05" fill="#5d92ff"/>
      <circle cx="18.2" cy="40" r="1.3" fill="#b7cbff"/>
      <circle cx="21.8" cy="40" r="1.3" fill="#b7cbff"/>
      <circle cx="20" cy="38.2" r="1.3" fill="#b7cbff"/>
      <circle cx="20" cy="41.8" r="1.3" fill="#b7cbff"/>
    </g>

    <g>
      <circle cx="43" cy="42" r="1.05" fill="#e93c76"/>
      <circle cx="41.2" cy="42" r="1.3" fill="#ff93b9"/>
      <circle cx="44.8" cy="42" r="1.3" fill="#ff93b9"/>
      <circle cx="43" cy="40.2" r="1.3" fill="#ff93b9"/>
      <circle cx="43" cy="43.8" r="1.3" fill="#ff93b9"/>
    </g>

    <g>
      <circle cx="31" cy="50" r="0.95" fill="#f39d11"/>
      <circle cx="29.4" cy="50" r="1.08" fill="#ffe274"/>
      <circle cx="32.6" cy="50" r="1.08" fill="#ffe274"/>
      <circle cx="31" cy="48.4" r="1.08" fill="#ffe274"/>
      <circle cx="31" cy="51.6" r="1.08" fill="#ffe274"/>
    </g>
  </g>
</svg>