<svg xmlns="http://www.w3.org/2000/svg" viewBox="0 0 64 64"><defs><radialGradient id="cactus13" cx="30%" cy="20%" r="80%"><stop offset="0" stop-color="#4caf50"/><stop offset=".55" stop-color="#2f7d32"/><stop offset="1" stop-color="#17451f"/></radialGradient></defs><g><ellipse cx="33" cy="50" rx="21" ry="8" fill="#17451f" opacity=".35"/><path d="M11 52C16 42 18 31 16 17c8 2 13 9 14 20 2-12 8-22 18-29 2 12 0 24-6 35 7-5 13-8 18-8-3 11-11 19-23 23-9 3-19 1-26-6z" fill="url(#cactus13)"/><path d="M17 50c7-8 10-18 9-31M30 56c1-16 6-29 17-43M41 53c6-8 11-13 18-16M18 39c7 6 18 8 31 5" stroke="#a6d96a" stroke-width="2" stroke-linecap="round" opacity=".72" fill="none"/><path d="M23 32c3 2 7 3 11 2M34 45c4 0 8-1 12-4" stroke="#12381a" stroke-width="2" stroke-linecap="round" opacity=".5" fill="none"/><g><circle cx="23" cy="20" r="1.5" fill="#ff61a6"/><circle cx="21.2" cy="20" r=".9" fill="#ffb0d4"/><circle cx="24.8" cy="20" r=".9" fill="#ffb0d4"/><circle cx="23" cy="18.2" r=".9" fill="#ffb0d4"/><circle cx="23" cy="21.8" r=".9" fill="#ffb0d4"/></g><g><circle cx="48" cy="16" r="1.5" fill="#ffd84d"/><circle cx="46.2" cy="16" r=".9" fill="#fff08a"/><circle cx="49.8" cy="16" r=".9" fill="#fff08a"/><circle cx="48" cy="14.2" r=".9" fill="#fff08a"/><circle cx="48" cy="17.8" r=".9" fill="#fff08a"/></g></g></svg>