<svg xmlns="http://www.w3.org/2000/svg" viewBox="0 0 64 64"><defs><radialGradient id="vine18" cx="30%" cy="24%" r="78%"><stop offset="0" stop-color="#52b54a"/><stop offset=".55" stop-color="#2f7d32"/><stop offset="1" stop-color="#17451f"/></radialGradient></defs><g><ellipse cx="34" cy="44" rx="23" ry="13" fill="#17451f" opacity=".35"/><path d="M8 43c3-10 12-16 24-15 1-10 8-17 20-20 0 11-4 20-13 27 10 0 17 5 21 14-9 7-21 7-32 1-8 5-16 4-20-7z" fill="url(#vine18)"/><path d="M14 44c9-4 18-5 27-2 8 3 13 1 17-4M29 51c-3-10 0-18 8-24 6-5 9-10 10-17M17 35c8 3 16 2 24-3M27 47c7 3 15 4 25 1" stroke="#a6d96a" stroke-width="2.2" stroke-linecap="round" opacity=".68" fill="none"/><path d="M25 39c4-2 8-2 13 0M38 34c4-1 8-3 12-8M18 47c6 2 12 2 18 0" stroke="#12381a" stroke-width="2" stroke-linecap="round" opacity=".48" fill="none"/><g><circle cx="20" cy="37" r="1.5" fill="#6ab7ff"/><circle cx="18.2" cy="37" r=".9" fill="#a6d8ff"/><circle cx="21.8" cy="37" r=".9" fill="#a6d8ff"/><circle cx="20" cy="35.2" r=".9" fill="#a6d8ff"/><circle cx="20" cy="38.8" r=".9" fill="#a6d8ff"/></g><g><circle cx="49" cy="43" r="1.5" fill="#ff7ecb"/><circle cx="47.2" cy="43" r=".9" fill="#ffb3dd"/><circle cx="50.8" cy="43" r=".9" fill="#ffb3dd"/><circle cx="49" cy="41.2" r=".9" fill="#ffb3dd"/><circle cx="49" cy="44.8" r=".9" fill="#ffb3dd"/></g></g></svg>