<svg xmlns="http://www.w3.org/2000/svg" viewBox="0 0 64 64"><defs><radialGradient id="reed14" cx="35%" cy="28%" r="76%"><stop offset="0" stop-color="#66ad4f"/><stop offset=".58" stop-color="#2f7d32"/><stop offset="1" stop-color="#17451f"/></radialGradient></defs><g><ellipse cx="33" cy="52" rx="24" ry="7" fill="#17451f" opacity=".36"/><path d="M8 55c5-13 11-22 19-28-1-7 1-14 7-20 5 8 6 17 4 27 7-7 14-11 22-13-2 14-8 25-19 35-10 4-24 3-33-1z" fill="url(#reed14)"/><path d="M13 55c4-14 8-25 16-37M23 58c2-17 4-31 11-47M33 59c4-16 10-28 24-37M44 56c3-9 7-16 15-22M15 47c12 5 25 6 39 1" stroke="#b5e56c" stroke-width="2" stroke-linecap="round" opacity=".72" fill="none"/><path d="M21 55c-3-8-6-14-11-20M35 58c-2-9 0-18 5-28M48 50c-5-5-11-8-17-9" stroke="#12381a" stroke-width="2" stroke-linecap="round" opacity=".46" fill="none"/><ellipse cx="27" cy="27" rx="2.2" ry="4.5" fill="#ff9f1c" transform="rotate(-18 27 27)"/><ellipse cx="42" cy="32" rx="2.2" ry="4.5" fill="#ffcf5a" transform="rotate(24 42 32)"/><circle cx="50" cy="42" r="1.4" fill="#f57cff"/><circle cx="19" cy="40" r="1.4" fill="#6ab7ff"/></g></svg>