<svg xmlns="http://www.w3.org/2000/svg" viewBox="0 0 64 64"><defs><radialGradient id="grassMound12" cx="31%" cy="23%" r="80%"><stop offset="0%" stop-color="#4dad45"/><stop offset="58%" stop-color="#2f7d32"/><stop offset="100%" stop-color="#17451f"/></radialGradient></defs><g><ellipse cx="33" cy="52" rx="25" ry="7" fill="#17451f" opacity="0.38"/><path fill="url(#grassMound12)" d="M7 56C10 46 15 37 24 29C20 21 20 14 24 7C31 15 33 24 32 34C36 22 42 14 51 9C52 22 49 34 42 43C49 38 55 35 59 34C57 44 52 52 43 57C33 61 17 60 7 56Z"/><path d="M11 56c4-12 9-22 18-32M18 58c3-16 6-30 8-47M26 59c4-15 7-27 17-43M36 59c3-14 8-25 15-34M46 56c3-8 7-14 12-19" stroke="#a6d96a" stroke-width="2.3" stroke-linecap="round" opacity="0.76" fill="none"/><path d="M15 55c-1-8-3-15-7-21M25 58c-2-9-5-17-10-25M35 58c-1-9 1-18 6-29M48 52c-5-5-11-9-18-11" stroke="#12381a" stroke-width="2.1" stroke-linecap="round" opacity="0.48" fill="none"/><path d="M14 51c9 4 24 6 37-2M20 44c7 4 18 5 29 1" stroke="#1f5a27" stroke-width="2.4" stroke-linecap="round" opacity="0.55" fill="none"/><g><circle cx="18" cy="38" r="1.7" fill="#ff4e4e"/><circle cx="16" cy="38" r="1" fill="#ff8a8a"/><circle cx="20" cy="38" r="1" fill="#ff8a8a"/><circle cx="18" cy="36" r="1" fill="#ff8a8a"/><circle cx="18" cy="40" r="1" fill="#ff8a8a"/><circle cx="18" cy="38" r="0.55" fill="#ffd84d"/></g><g><circle cx="39" cy="30" r="1.7" fill="#ffd84d"/><circle cx="37" cy="30" r="1" fill="#fff07a"/><circle cx="41" cy="30" r="1" fill="#fff07a"/><circle cx="39" cy="28" r="1" fill="#fff07a"/><circle cx="39" cy="32" r="1" fill="#fff07a"/><circle cx="39" cy="30" r="0.55" fill="#7a4314"/></g><g><circle cx="49" cy="43" r="1.6" fill="#f57cff"/><circle cx="47.2" cy="43" r="0.95" fill="#ffb0ff"/><circle cx="50.8" cy="43" r="0.95" fill="#ffb0ff"/><circle cx="49" cy="41.2" r="0.95" fill="#ffb0ff"/><circle cx="49" cy="44.8" r="0.95" fill="#ffb0ff"/><circle cx="49" cy="43" r="0.5" fill="#d7ef7a"/></g></g></svg>