<svg xmlns="http://www.w3.org/2000/svg" viewBox="0 0 64 64"><defs><radialGradient id="leafBush11" cx="35%" cy="26%" r="76%"><stop offset="0%" stop-color="#4fb24c"/><stop offset="55%" stop-color="#2f7d32"/><stop offset="100%" stop-color="#17451f"/></radialGradient></defs><g><path d="M13 52c8 6 30 7 40-3 3-3 4-8 2-12-6 9-34 12-45 4-3 4-1 8 3 11z" fill="#17451f" opacity="0.36"/><path fill="url(#leafBush11)" d="M7 45C11 38 11 29 9 21C17 22 24 26 29 34C27 24 30 15 36 8C42 16 44 25 42 34C47 27 53 23 59 22C58 32 54 42 46 50C38 58 21 59 11 52C8 50 6 48 7 45Z"/><ellipse cx="23" cy="37" rx="9" ry="15" fill="#276a2c" transform="rotate(-28 23 37)"/><ellipse cx="34" cy="30" rx="9" ry="17" fill="#3f9a3f" transform="rotate(8 34 30)" opacity="0.88"/><ellipse cx="45" cy="38" rx="9" ry="15" fill="#276a2c" transform="rotate(30 45 38)"/><ellipse cx="32" cy="48" rx="17" ry="8" fill="#1f5a27" opacity="0.5"/><path d="M16 47c6-8 12-13 19-17M25 52c2-11 5-22 11-34M37 52c4-10 9-18 18-25M14 33c7 2 13 5 19 11M46 31c-4 5-8 9-14 13" stroke="#a6d96a" stroke-width="2" stroke-linecap="round" opacity="0.65" fill="none"/><path d="M18 50c8 2 18 3 28-1M19 40c5 3 10 4 16 4M36 39c4-3 8-5 14-6" stroke="#12381a" stroke-width="2.1" stroke-linecap="round" opacity="0.48" fill="none"/><circle cx="19" cy="30" r="1.5" fill="#d7ef7a"/><circle cx="33" cy="19" r="1.5" fill="#a6d96a"/><circle cx="49" cy="31" r="1.5" fill="#d7ef7a"/><g><circle cx="29" cy="43" r="1.6" fill="#6ab7ff"/><circle cx="27.2" cy="43" r="0.95" fill="#a6d8ff"/><circle cx="30.8" cy="43" r="0.95" fill="#a6d8ff"/><circle cx="29" cy="41.2" r="0.95" fill="#a6d8ff"/><circle cx="29" cy="44.8" r="0.95" fill="#a6d8ff"/><circle cx="29" cy="43" r="0.5" fill="#d7ef7a"/></g></g></svg>