<svg xmlns="http://www.w3.org/2000/svg" viewBox="0 0 64 64"><defs><radialGradient id="dry17" cx="35%" cy="30%" r="80%"><stop offset="0" stop-color="#6bab45"/><stop offset=".55" stop-color="#3f7d2c"/><stop offset="1" stop-color="#17451f"/></radialGradient></defs><g><ellipse cx="33" cy="52" rx="25" ry="7" fill="#17451f" opacity=".34"/><path d="M7 56c4-13 10-24 19-32 1-7 5-13 12-18 2 11 1 21-4 30 7-6 16-10 26-12-4 12-10 22-21 32-9 4-22 4-32 0z" fill="url(#dry17)"/><path d="M12 56c3-14 6-25 14-38M22 58c2-16 5-29 15-47M31 59c5-15 12-26 25-34M44 55c3-8 7-14 14-18" stroke="#d4c46a" stroke-width="2" stroke-linecap="round" opacity=".72" fill="none"/><path d="M16 53c9 4 21 5 36 0M17 45c8 3 18 3 30 0M25 58c-4-9-8-16-14-22M48 48c-6-5-12-8-20-9" stroke="#12381a" stroke-width="2" stroke-linecap="round" opacity=".45" fill="none"/><circle cx="24" cy="33" r="1.3" fill="#ff9f1c"/><circle cx="41" cy="29" r="1.3" fill="#ffd84d"/><circle cx="51" cy="43" r="1.2" fill="#f57cff"/></g></svg>