<svg xmlns="http://www.w3.org/2000/svg" viewBox="0 0 64 64"><defs><radialGradient id="wildBush01" cx="30%" cy="22%" r="78%"><stop offset="0%" stop-color="#4aa947"/><stop offset="55%" stop-color="#2f7d32"/><stop offset="100%" stop-color="#17451f"/></radialGradient></defs><g><ellipse cx="35" cy="43" rx="22" ry="14" fill="#17451f" opacity="0.4"/><path fill="url(#wildBush01)" d="M10 31c-2-8 5-14 13-12 5-8 18-8 23 0 8 1 12 9 8 17 5 4 4 13-4 16-5 7-18 7-24 1-9 3-18-5-15-14-4-2-4-6-1-8z"/><circle cx="20" cy="31" r="12" fill="#276a2c"/><circle cx="34" cy="24" r="13" fill="#3f9a3f" opacity="0.88"/><circle cx="46" cy="34" r="12" fill="#2f7d32"/><circle cx="34" cy="45" r="15" fill="#2f7d32"/><circle cx="20" cy="44" r="9" fill="#1f5a27" opacity="0.65"/><circle cx="47" cy="45" r="9" fill="#1f5a27" opacity="0.75"/><path d="M15 46c2-7 5-12 10-17M23 48c0-8 2-15 6-22M32 50c0-9 2-17 6-25M43 49c1-7 4-13 9-18M50 43c-4-6-8-10-13-12M19 41c-4-5-7-8-10-9" stroke="#a6d96a" stroke-width="1.8" stroke-linecap="round" opacity="0.65" fill="none"/><path d="M20 35c4-2 8-2 12 1M34 32c4-1 8 0 12 3M26 46c5 1 10 0 14-3M42 43c3-1 6-4 8-7" stroke="#12381a" stroke-width="2" stroke-linecap="round" opacity="0.45" fill="none"/><g><circle cx="18" cy="29" r="1.8" fill="#ff4e4e"/><circle cx="15.7" cy="29" r="1.1" fill="#ff8a8a"/><circle cx="20.3" cy="29" r="1.1" fill="#ff8a8a"/><circle cx="18" cy="26.7" r="1.1" fill="#ff8a8a"/><circle cx="18" cy="31.3" r="1.1" fill="#ff8a8a"/><circle cx="18" cy="29" r="0.6" fill="#ffd84d"/></g><g><circle cx="39" cy="22" r="1.7" fill="#ffb347"/><circle cx="36.8" cy="22" r="1.1" fill="#ffd37a"/><circle cx="41.2" cy="22" r="1.1" fill="#ffd37a"/><circle cx="39" cy="19.8" r="1.1" fill="#ffd37a"/><circle cx="39" cy="24.2" r="1.1" fill="#ffd37a"/><circle cx="39" cy="22" r="0.6" fill="#7a4314"/></g><g><circle cx="47" cy="39" r="1.7" fill="#f57cff"/><circle cx="44.8" cy="39" r="1.1" fill="#ffb0ff"/><circle cx="49.2" cy="39" r="1.1" fill="#ffb0ff"/><circle cx="47" cy="36.8" r="1.1" fill="#ffb0ff"/><circle cx="47" cy="41.2" r="1.1" fill="#ffb0ff"/><circle cx="47" cy="39" r="0.6" fill="#d7ef7a"/></g><circle cx="30" cy="50" r="1.6" fill="#d7ef7a"/><circle cx="26" cy="22" r="1.3" fill="#a6d96a"/><circle cx="14" cy="40" r="1.2" fill="#d7ef7a"/></g></svg>