<svg xmlns="http://www.w3.org/2000/svg" viewBox="0 0 64 64"><defs><radialGradient id="clover16" cx="32%" cy="26%" r="76%"><stop offset="0" stop-color="#53b84f"/><stop offset=".55" stop-color="#2f7d32"/><stop offset="1" stop-color="#17451f"/></radialGradient></defs><g><ellipse cx="34" cy="45" rx="23" ry="12" fill="#17451f" opacity=".34"/><path d="M9 45c4-9 11-15 20-16-3-8 0-16 8-21 5 7 6 14 3 22 9-2 17 2 21 10-7 8-16 10-26 5-5 10-16 12-26 0z" fill="url(#clover16)"/><g fill="#3f9a3f" opacity=".9"><ellipse cx="24" cy="35" rx="8" ry="12" transform="rotate(-35 24 35)"/><ellipse cx="38" cy="33" rx="8" ry="12" transform="rotate(34 38 33)"/><ellipse cx="32" cy="24" rx="8" ry="11"/><ellipse cx="33" cy="44" rx="13" ry="8"/></g><path d="M31 28c-3 8-8 14-17 19M33 29c1 9 1 17-1 25M36 32c7 5 13 7 21 8M18 44c10 4 23 5 36 0" stroke="#a6d96a" stroke-width="2" stroke-linecap="round" opacity=".65" fill="none"/><path d="M22 39c5 1 9 0 13-3M35 42c4 0 8-1 12-4" stroke="#12381a" stroke-width="2" stroke-linecap="round" opacity=".45" fill="none"/><circle cx="27" cy="25" r="1.4" fill="#d7ef7a"/><circle cx="44" cy="36" r="1.4" fill="#ff7ecb"/><circle cx="19" cy="43" r="1.3" fill="#6ab7ff"/></g></svg>