<svg xmlns="http://www.w3.org/2000/svg" viewBox="0 0 64 64"><defs><radialGradient id="fern15" cx="32%" cy="30%" r="78%"><stop offset="0" stop-color="#4fb24c"/><stop offset=".55" stop-color="#2f7d32"/><stop offset="1" stop-color="#12381a"/></radialGradient></defs><g><ellipse cx="32" cy="45" rx="21" ry="12" fill="#17451f" opacity=".35"/><path d="M32 8c5 9 6 17 2 25 7-8 16-12 26-12-4 10-11 17-22 20 9 2 15 7 18 16-11 0-19-3-25-10-5 7-13 10-24 9 3-8 8-13 17-16-9-3-15-9-19-18 10-1 18 3 25 11-3-9-2-17 2-25z" fill="url(#fern15)"/><path d="M32 12v42M12 25c12 8 25 14 39 18M53 24c-10 8-22 14-38 20M13 54c11-5 23-9 37-8M15 35c11 2 23 2 36 0" stroke="#a6d96a" stroke-width="2" stroke-linecap="round" opacity=".65" fill="none"/><path d="M24 22c3 3 6 5 10 6M38 23c-3 4-6 6-10 8M24 48c5 0 10-1 16-4" stroke="#12381a" stroke-width="2" stroke-linecap="round" opacity=".45" fill="none"/><circle cx="32" cy="32" r="2" fill="#d7ef7a"/><circle cx="19" cy="29" r="1.4" fill="#ff76b6"/><circle cx="47" cy="29" r="1.4" fill="#ffd84d"/></g></svg>