<svg xmlns="http://www.w3.org/2000/svg" viewBox="0 0 500 500" role="img" aria-labelledby="title desc">
  <title id="title">Grenade power-up</title>
  <desc id="desc">Amber grenade weapon pickup icon with an explosion burst and gridded grenade inside glowing target rings.</desc>
  <defs>
    <radialGradient id="coreGradient" cx="50%" cy="50%" r="50%">
      <stop offset="0%" stop-color="#ff8f00" stop-opacity="1" />
      <stop offset="62%" stop-color="#ff8c00" stop-opacity="0.96" />
      <stop offset="100%" stop-color="#140800" stop-opacity="0.18" />
    </radialGradient>

    <filter id="wideGlow" x="-70%" y="-70%" width="240%" height="240%">
      <feGaussianBlur stdDeviation="18" result="blur" />
      <feColorMatrix
        in="blur"
        type="matrix"
        values="0 0 0 0 1
                0 0 0 0 0.66
                0 0 0 0 0
                0 0 0 0.9 0"
        result="amberBlur"
      />
      <feMerge>
        <feMergeNode in="amberBlur" />
        <feMergeNode in="SourceGraphic" />
      </feMerge>
    </filter>

    <filter id="lineGlow" x="-40%" y="-40%" width="180%" height="180%">
      <feGaussianBlur stdDeviation="4" result="blur" />
      <feMerge>
        <feMergeNode in="blur" />
        <feMergeNode in="SourceGraphic" />
      </feMerge>
    </filter>
  </defs>

  <circle cx="250" cy="250" r="166" fill="none" stroke="#ffb000" stroke-width="22" opacity="0.72" filter="url(#wideGlow)" />
  <circle cx="250" cy="250" r="137" fill="url(#coreGradient)" opacity="0.96" />

  <g fill="none" stroke-linecap="square">
    <circle cx="250" cy="250" r="166" stroke="#ffb000" stroke-width="8" filter="url(#lineGlow)" />
    <circle cx="250" cy="250" r="137" stroke="#fff2d0" stroke-width="2" opacity="0.95" />
  </g>

  <g stroke="#ffb000" stroke-width="4" stroke-linecap="square" filter="url(#lineGlow)">
    <path d="M 250 46 L 250 73" />
    <path d="M 250 427 L 250 454" />
    <path d="M 46 250 L 73 250" />
    <path d="M 427 250 L 454 250" />
    <path d="M 105.8 105.8 L 124.9 124.9" />
    <path d="M 375.1 375.1 L 394.2 394.2" />
    <path d="M 394.2 105.8 L 375.1 124.9" />
    <path d="M 124.9 375.1 L 105.8 394.2" />
  </g>

  <g filter="url(#lineGlow)">
    <path d="M 250 113 L 275 172 L 331 139 L 318 202 L 382 209 L 332 250 L 382 291 L 318 298 L 331 361 L 275 328 L 250 387 L 225 328 L 169 361 L 182 298 L 118 291 L 168 250 L 118 209 L 182 202 L 169 139 L 225 172 Z"
      fill="#ff9100" stroke="#fff2c2" stroke-width="1" opacity="0.92" />

    <circle cx="250" cy="274" r="84" fill="#263f22" stroke="#6ff05b" stroke-width="6" />
    <path d="M 200 197 L 200 337 M 250 190 L 250 358 M 300 205 L 300 337 M 178 226 L 321 226 M 177 272 L 324 272 M 191 316 L 309 316"
      stroke="#8aa866" stroke-width="5" stroke-linecap="square" />

    <path d="M 250 165 L 284 165 L 284 196 L 239 196 L 239 165 Z" fill="#454545" />
    <path d="M 282 158 C 305 138 343 147 346 184 C 349 219 314 236 287 218 C 265 203 261 177 282 158 Z"
      fill="none" stroke="#e9e9e9" stroke-width="8" />
    <path d="M 285 158 C 296 148 311 144 326 149" fill="none" stroke="#ffb000" stroke-width="5" />
  </g>
</svg>
