<svg xmlns="http://www.w3.org/2000/svg" viewBox="0 0 500 500" role="img" aria-labelledby="title desc">
  <title id="title">Shotgun power-up</title>
  <desc id="desc">Neon green shotgun weapon pickup icon with a barrel and five pellet spread beams inside glowing target rings.</desc>
  <defs>
    <radialGradient id="coreGradient" cx="50%" cy="50%" r="50%">
      <stop offset="0%" stop-color="#0d2a1d" stop-opacity="0.95" />
      <stop offset="65%" stop-color="#0d2a1d" stop-opacity="0.92" />
      <stop offset="100%" stop-color="#020604" stop-opacity="0.18" />
    </radialGradient>

    <filter id="wideGlow" x="-70%" y="-70%" width="240%" height="240%">
      <feGaussianBlur stdDeviation="18" result="blur" />
      <feColorMatrix
        in="blur"
        type="matrix"
        values="0 0 0 0 0
                0 0 0 0 1
                0 0 0 0 0.46
                0 0 0 0.9 0"
        result="greenBlur"
      />
      <feMerge>
        <feMergeNode in="greenBlur" />
        <feMergeNode in="SourceGraphic" />
      </feMerge>
    </filter>

    <filter id="lineGlow" x="-40%" y="-40%" width="180%" height="180%">
      <feGaussianBlur stdDeviation="4" result="blur" />
      <feMerge>
        <feMergeNode in="blur" />
        <feMergeNode in="SourceGraphic" />
      </feMerge>
    </filter>

    <linearGradient id="beamGradient" x1="92" y1="250" x2="397" y2="250" gradientUnits="userSpaceOnUse">
      <stop offset="0%" stop-color="#12ff98" stop-opacity="0.78" />
      <stop offset="75%" stop-color="#12ff85" stop-opacity="0.72" />
      <stop offset="100%" stop-color="#7cffc4" stop-opacity="0.2" />
    </linearGradient>
  </defs>

  <circle cx="250" cy="250" r="166" fill="none" stroke="#0fff88" stroke-width="22" opacity="0.72" filter="url(#wideGlow)" />
  <circle cx="250" cy="250" r="137" fill="url(#coreGradient)" opacity="0.96" />

  <g fill="none" stroke-linecap="square">
    <circle cx="250" cy="250" r="166" stroke="#00ff84" stroke-width="8" filter="url(#lineGlow)" />
    <circle cx="250" cy="250" r="137" stroke="#e9fff4" stroke-width="2" opacity="0.95" />
  </g>

  <g stroke="#14ff91" stroke-width="4" stroke-linecap="square" filter="url(#lineGlow)">
    <path d="M 250 46 L 250 73" />
    <path d="M 250 427 L 250 454" />
    <path d="M 46 250 L 73 250" />
    <path d="M 427 250 L 454 250" />
    <path d="M 105.8 105.8 L 124.9 124.9" />
    <path d="M 375.1 375.1 L 394.2 394.2" />
    <path d="M 394.2 105.8 L 375.1 124.9" />
    <path d="M 124.9 375.1 L 105.8 394.2" />
  </g>

  <g filter="url(#lineGlow)">
    <path d="M 96 230 L 232 230 L 397 116 L 368 174 L 250 250 L 368 326 L 397 384 L 232 270 L 96 270 Z"
      fill="url(#beamGradient)" stroke="#12ff85" stroke-width="4" />
    <path d="M 104 250 L 354 250" stroke="#b8ffdf" stroke-width="5" stroke-dasharray="94 7" />
    <path d="M 108 250 L 360 173" stroke="#b8ffdf" stroke-width="5" stroke-dasharray="108 7" opacity="0.78" />
    <path d="M 108 250 L 360 327" stroke="#b8ffdf" stroke-width="5" stroke-dasharray="108 7" opacity="0.78" />
    <path d="M 108 250 L 388 212" stroke="#b8ffdf" stroke-width="5" stroke-dasharray="125 7" opacity="0.62" />
    <path d="M 108 250 L 388 288" stroke="#b8ffdf" stroke-width="5" stroke-dasharray="125 7" opacity="0.62" />

    <path d="M 102 229 L 225 229 C 231 229 236 234 236 240 L 236 260 C 236 266 231 271 225 271 L 102 271 C 95 271 90 266 90 259 L 90 241 C 90 234 95 229 102 229 Z"
      fill="#0d2a1d" stroke="#12ff85" stroke-width="4" />
    <rect x="126" y="240" width="149" height="21" rx="6" fill="#233b32" stroke="#b8ffdf" stroke-width="3" />

    <g fill="#d4ffe9" stroke="#12ff85" stroke-width="5">
      <circle cx="365" cy="149" r="16" />
      <circle cx="386" cy="250" r="17" />
      <circle cx="365" cy="351" r="16" />
      <circle cx="396" cy="204" r="11" />
      <circle cx="396" cy="305" r="11" />
    </g>
    <g fill="none" stroke="#12ff85" stroke-width="5" opacity="0.85">
      <circle cx="365" cy="149" r="33" />
      <circle cx="397" cy="204" r="31" />
      <circle cx="388" cy="250" r="31" />
      <circle cx="397" cy="305" r="31" />
      <circle cx="365" cy="351" r="33" />
    </g>
  </g>
</svg>
