<svg xmlns="http://www.w3.org/2000/svg" viewBox="0 0 512 512" width="512" height="512">
  <defs>
    <linearGradient id="redArmor" x1="0" x2="0" y1="0" y2="1">
      <stop offset="0%" stop-color="var(--tank-highlight)"/>
      <stop offset="40%" stop-color="var(--tank-color)"/>
      <stop offset="70%" stop-color="var(--tank-shadow)"/>
      <stop offset="100%" stop-color="var(--tank-deep-shadow)"/>
    </linearGradient>
    <linearGradient id="redEdge" x1="0" x2="1" y1="0" y2="0">
      <stop offset="0%" stop-color="var(--tank-highlight)"/>
      <stop offset="50%" stop-color="var(--tank-shadow)"/>
      <stop offset="100%" stop-color="var(--tank-deep-shadow)"/>
    </linearGradient>
    <linearGradient id="darkSteel" x1="0" x2="0" y1="0" y2="1">
      <stop offset="0%" stop-color="#404349"/>
      <stop offset="50%" stop-color="#24272d"/>
      <stop offset="100%" stop-color="#13161a"/>
    </linearGradient>
    <filter id="shadow" x="-30%" y="-30%" width="160%" height="160%">
      <feDropShadow dx="0" dy="18" stdDeviation="14" flood-color="#000" flood-opacity="0.35"/>
    </filter>
    <filter id="innerGlow" x="-20%" y="-20%" width="140%" height="140%">
      <feDropShadow dx="0" dy="0" stdDeviation="3" flood-color="#fff" flood-opacity="0.28"/>
    </filter>
    <style>
      :root {
        --tank-color: #db3a2c;
        --tank-highlight: color-mix(in srgb, var(--tank-color), white 38%);
        --tank-soft-highlight: color-mix(in srgb, var(--tank-color), white 64%);
        --tank-shadow: color-mix(in srgb, var(--tank-color), black 28%);
        --tank-deep-shadow: color-mix(in srgb, var(--tank-color), black 58%);
        --tank-outline: color-mix(in srgb, var(--tank-color), black 86%);
      }
      .line { stroke:var(--tank-outline); stroke-width:4; stroke-linejoin:round; }
      .fine { stroke:var(--tank-outline); stroke-width:2.2; stroke-linejoin:round; }
      .bolt { fill:var(--tank-outline); }
      .scratch { stroke:var(--tank-soft-highlight); stroke-opacity:.65; stroke-width:2.6; stroke-linecap:round; }
      .scratch2 { stroke:var(--tank-deep-shadow); stroke-opacity:.9; stroke-width:1.8; stroke-linecap:round; }
    </style>
  </defs>

  <g filter="url(#shadow)">
    <!-- Hull shadow base -->
    <path d="M182 58 L330 58 L364 100 L364 416 L328 454 L184 454 L148 416 L148 100 Z" fill="#0d0e11" opacity="0.78"/>

    <!-- Main hull -->
    <path d="M178 52 L334 52 L382 110 L382 406 L330 458 L182 458 L130 406 L130 110 Z" fill="url(#redArmor)" class="line"/>
    <path d="M194 72 L318 72 L354 114 L354 394 L320 430 L192 430 L158 394 L158 114 Z" fill="#17181c" class="fine"/>

    <!-- Side armor wings -->
    <path d="M130 110 L178 78 L194 104 L194 370 L160 410 L130 406 Z" fill="url(#redEdge)" class="line"/>
    <path d="M382 110 L334 78 L318 104 L318 370 L352 410 L382 406 Z" fill="url(#redEdge)" class="line"/>

    <!-- Front and rear decks -->
    <path d="M188 72 L324 72 L348 100 L348 144 L164 144 L164 100 Z" fill="url(#redEdge)" class="line"/>
    <path d="M178 360 L334 360 L360 390 L340 438 L172 438 L152 390 Z" fill="url(#redEdge)" class="line"/>

    <!-- Central armor panel -->
    <rect x="184" y="152" width="144" height="174" rx="12" fill="url(#redArmor)" class="line"/>
    <rect x="204" y="176" width="104" height="126" rx="10" fill="url(#darkSteel)" class="fine"/>

    <!-- Rear lower plate -->
    <rect x="170" y="372" width="172" height="44" rx="10" fill="var(--tank-shadow)" class="line"/>
    <rect x="196" y="382" width="48" height="12" rx="5" fill="#14171b"/>
    <rect x="268" y="382" width="48" height="12" rx="5" fill="#14171b"/>

    <!-- Corner plates -->
    <g>
      <rect x="150" y="94" width="44" height="54" rx="8" fill="var(--tank-color)" class="fine"/>
      <rect x="318" y="94" width="44" height="54" rx="8" fill="var(--tank-color)" class="fine"/>
      <rect x="150" y="318" width="44" height="74" rx="8" fill="var(--tank-color)" class="fine"/>
      <rect x="318" y="318" width="44" height="74" rx="8" fill="var(--tank-color)" class="fine"/>
    </g>

    <!-- Lights / vents -->
    <g>
      <rect x="160" y="102" width="26" height="38" rx="6" fill="#545963" class="fine"/>
      <rect x="326" y="102" width="26" height="38" rx="6" fill="#545963" class="fine"/>
      <rect x="160" y="329" width="26" height="44" rx="6" fill="#545963" class="fine"/>
      <rect x="326" y="329" width="26" height="44" rx="6" fill="#545963" class="fine"/>
      <path d="M165 112 h16 M165 120 h16 M165 128 h16" class="fine"/>
      <path d="M331 112 h16 M331 120 h16 M331 128 h16" class="fine"/>
      <path d="M165 340 h16 M165 350 h16 M165 360 h16" class="fine"/>
      <path d="M331 340 h16 M331 350 h16 M331 360 h16" class="fine"/>
    </g>

    <!-- Rear mini lights -->
    <rect x="196" y="420" width="28" height="12" rx="5" fill="var(--tank-deep-shadow)" class="fine"/>
    <rect x="288" y="420" width="28" height="12" rx="5" fill="var(--tank-deep-shadow)" class="fine"/>

    <!-- Bolts -->
    <g class="bolt">
      <circle cx="164" cy="105" r="3.4"/><circle cx="347" cy="105" r="3.4"/>
      <circle cx="164" cy="382" r="3.4"/><circle cx="347" cy="382" r="3.4"/>
      <circle cx="206" cy="86" r="3.4"/><circle cx="306" cy="86" r="3.4"/>
      <circle cx="204" cy="340" r="3.4"/><circle cx="308" cy="340" r="3.4"/>
      <circle cx="208" cy="190" r="3.2"/><circle cx="304" cy="190" r="3.2"/>
      <circle cx="208" cy="286" r="3.2"/><circle cx="304" cy="286" r="3.2"/>
    </g>

    <!-- Highlights -->
    <path d="M194 72 L318 72" stroke="var(--tank-soft-highlight)" stroke-opacity=".65" stroke-width="5" stroke-linecap="round"/>
    <path d="M162 145 L162 380" stroke="var(--tank-highlight)" stroke-opacity=".28" stroke-width="4" stroke-linecap="round"/>
    <path d="M350 145 L350 380" stroke="var(--tank-highlight)" stroke-opacity=".18" stroke-width="4" stroke-linecap="round"/>
    <path d="M186 374 L324 374" stroke="var(--tank-soft-highlight)" stroke-opacity=".4" stroke-width="4" stroke-linecap="round"/>

    <!-- Scratches -->
    <g>
      <path d="M226 116 l14 -8" class="scratch"/>
      <path d="M298 118 l11 -7" class="scratch"/>
      <path d="M187 213 l9 -10" class="scratch2"/>
      <path d="M335 248 l11 8" class="scratch2"/>
      <path d="M206 354 l16 -7" class="scratch"/>
      <path d="M282 344 l10 7" class="scratch2"/>
      <path d="M319 397 l12 -5" class="scratch"/>
      <path d="M174 389 l10 -9" class="scratch2"/>
    </g>
  </g>
</svg>
