<svg xmlns="http://www.w3.org/2000/svg" viewBox="0 0 500 500" role="img" aria-labelledby="title desc">
  <title id="title">Tank dash</title>
  <desc id="desc">Blue neon dash ability icon showing a tank surging forward with bright speed trails and an electric circular aura.</desc>
  <defs>
    <radialGradient id="coreGradient" cx="50%" cy="50%" r="50%">
      <stop offset="0%" stop-color="#092c46" stop-opacity="0.96" />
      <stop offset="62%" stop-color="#061a2c" stop-opacity="0.95" />
      <stop offset="100%" stop-color="#01050a" stop-opacity="0.2" />
    </radialGradient>

    <linearGradient id="dashTrail" x1="70" y1="0" x2="350" y2="0" gradientUnits="userSpaceOnUse">
      <stop offset="0%" stop-color="#00eaff" stop-opacity="0" />
      <stop offset="34%" stop-color="#00c8ff" stop-opacity="0.75" />
      <stop offset="100%" stop-color="#e7fbff" stop-opacity="0.98" />
    </linearGradient>

    <linearGradient id="armorBlue" x1="0" y1="0" x2="1" y2="1">
      <stop offset="0%" stop-color="#dffcff" />
      <stop offset="28%" stop-color="#16cfff" />
      <stop offset="62%" stop-color="#0573d6" />
      <stop offset="100%" stop-color="#032352" />
    </linearGradient>

    <linearGradient id="trackBlue" x1="0" y1="0" x2="1" y2="1">
      <stop offset="0%" stop-color="#2eecff" />
      <stop offset="44%" stop-color="#0a506f" />
      <stop offset="100%" stop-color="#03101c" />
    </linearGradient>

    <filter id="wideGlow" x="-70%" y="-70%" width="240%" height="240%">
      <feGaussianBlur stdDeviation="18" result="blur" />
      <feColorMatrix
        in="blur"
        type="matrix"
        values="0 0 0 0 0
                0 0 0 0 0.74
                0 0 0 0 1
                0 0 0 0.9 0"
        result="blueBlur"
      />
      <feMerge>
        <feMergeNode in="blueBlur" />
        <feMergeNode in="SourceGraphic" />
      </feMerge>
    </filter>

    <filter id="lineGlow" x="-45%" y="-45%" width="190%" height="190%">
      <feGaussianBlur stdDeviation="4" result="blur" />
      <feMerge>
        <feMergeNode in="blur" />
        <feMergeNode in="SourceGraphic" />
      </feMerge>
    </filter>

    <filter id="tankShadow" x="-45%" y="-45%" width="190%" height="190%">
      <feDropShadow dx="-8" dy="14" stdDeviation="8" flood-color="#000000" flood-opacity="0.55" />
      <feDropShadow dx="0" dy="0" stdDeviation="4" flood-color="#00dfff" flood-opacity="0.55" />
    </filter>
  </defs>

  <circle cx="250" cy="250" r="166" fill="none" stroke="#00cfff" stroke-width="22" opacity="0.7" filter="url(#wideGlow)" />
  <circle cx="250" cy="250" r="137" fill="url(#coreGradient)" opacity="0.98" />

  <g fill="none" stroke-linecap="square">
    <circle cx="250" cy="250" r="166" stroke="#00eaff" stroke-width="8" filter="url(#lineGlow)" />
    <circle cx="250" cy="250" r="137" stroke="#e8fbff" stroke-width="2" opacity="0.94" />
  </g>

  <g stroke="#16dfff" stroke-width="4" stroke-linecap="square" filter="url(#lineGlow)">
    <path d="M 250 46 L 250 73" />
    <path d="M 250 427 L 250 454" />
    <path d="M 46 250 L 73 250" />
    <path d="M 427 250 L 454 250" />
    <path d="M 105.8 105.8 L 124.9 124.9" />
    <path d="M 375.1 375.1 L 394.2 394.2" />
    <path d="M 394.2 105.8 L 375.1 124.9" />
    <path d="M 124.9 375.1 L 105.8 394.2" />
  </g>

  <g filter="url(#lineGlow)">
    <path d="M 82 317 C 148 296 191 260 229 205" fill="none" stroke="url(#dashTrail)" stroke-width="28" stroke-linecap="round" opacity="0.78" />
    <path d="M 91 249 C 153 241 202 218 247 174" fill="none" stroke="url(#dashTrail)" stroke-width="15" stroke-linecap="round" opacity="0.68" />
    <path d="M 128 360 C 182 323 226 284 267 230" fill="none" stroke="url(#dashTrail)" stroke-width="11" stroke-linecap="round" opacity="0.58" />
    <path d="M 135 174 L 219 167 L 191 198 Z" fill="#00dfff" opacity="0.24" />
    <path d="M 98 338 L 184 315 L 162 355 Z" fill="#00dfff" opacity="0.2" />
  </g>

  <g transform="rotate(-34 268 246)" filter="url(#tankShadow)">
    <ellipse cx="254" cy="314" rx="122" ry="35" fill="#000000" opacity="0.34" />

    <rect x="161" y="185" width="46" height="150" rx="16" fill="url(#trackBlue)" stroke="#021322" stroke-width="7" />
    <rect x="310" y="185" width="46" height="150" rx="16" fill="url(#trackBlue)" stroke="#021322" stroke-width="7" />

    <g fill="#061522" opacity="0.9">
      <rect x="169" y="197" width="30" height="17" rx="4" />
      <rect x="169" y="221" width="30" height="17" rx="4" />
      <rect x="169" y="245" width="30" height="17" rx="4" />
      <rect x="169" y="269" width="30" height="17" rx="4" />
      <rect x="169" y="293" width="30" height="17" rx="4" />
      <rect x="318" y="197" width="30" height="17" rx="4" />
      <rect x="318" y="221" width="30" height="17" rx="4" />
      <rect x="318" y="245" width="30" height="17" rx="4" />
      <rect x="318" y="269" width="30" height="17" rx="4" />
      <rect x="318" y="293" width="30" height="17" rx="4" />
    </g>

    <path
      d="M 217 159 L 300 159 L 334 196 L 334 313 L 298 348 L 219 348 L 183 313 L 183 196 Z"
      fill="url(#armorBlue)"
      stroke="#021322"
      stroke-width="8"
      stroke-linejoin="round"
    />
    <path d="M 229 182 L 288 182 L 312 207 L 312 298 L 287 323 L 230 323 L 205 298 L 205 207 Z" fill="#061c2d" stroke="#a8f7ff" stroke-width="3" opacity="0.96" />
    <path d="M 232 205 L 285 205 L 299 220 L 299 281 L 284 296 L 233 296 L 218 281 L 218 220 Z" fill="#0a80d9" stroke="#021322" stroke-width="5" />
    <circle cx="258" cy="250" r="29" fill="#dffcff" stroke="#03345c" stroke-width="8" />
    <path d="M 258 250 L 258 103" fill="none" stroke="#021322" stroke-width="25" stroke-linecap="round" />
    <path d="M 258 250 L 258 103" fill="none" stroke="#44e9ff" stroke-width="15" stroke-linecap="round" />
    <path d="M 258 117 L 258 71" fill="none" stroke="#e7fbff" stroke-width="9" stroke-linecap="round" />
    <path d="M 207 194 L 310 194" fill="none" stroke="#e7fbff" stroke-width="5" stroke-linecap="round" opacity="0.7" />
    <path d="M 210 312 L 306 312" fill="none" stroke="#01101f" stroke-width="5" stroke-linecap="round" opacity="0.55" />
  </g>

  <g filter="url(#lineGlow)" opacity="0.88">
    <path d="M 310 145 C 355 168 388 199 420 247" fill="none" stroke="#dffcff" stroke-width="5" stroke-linecap="round" opacity="0.76" />
    <path d="M 328 352 C 374 323 408 281 426 230" fill="none" stroke="#00eaff" stroke-width="7" stroke-linecap="round" opacity="0.58" />
  </g>
</svg>
