<svg xmlns="http://www.w3.org/2000/svg" viewBox="0 0 500 500" role="img" aria-labelledby="title desc">
  <title id="title">Tank shield</title>
  <desc id="desc">Green neon shield ability icon showing a large force-field shield protecting a tank.</desc>
  <defs>
    <radialGradient id="coreGradient" cx="50%" cy="50%" r="50%">
      <stop offset="0%" stop-color="#021a0a" stop-opacity="0.96" />
      <stop offset="62%" stop-color="#010e05" stop-opacity="0.95" />
      <stop offset="100%" stop-color="#000501" stop-opacity="0.2" />
    </radialGradient>

    <radialGradient id="shieldBody" cx="50%" cy="36%" r="58%">
      <stop offset="0%" stop-color="#00ffcc" stop-opacity="0.25" />
      <stop offset="52%" stop-color="#00cc88" stop-opacity="0.13" />
      <stop offset="100%" stop-color="#00ff44" stop-opacity="0.04" />
    </radialGradient>

    <linearGradient id="trackGreen" x1="0" y1="0" x2="1" y2="1">
      <stop offset="0%" stop-color="#44ff99" />
      <stop offset="44%" stop-color="#006633" />
      <stop offset="100%" stop-color="#001100" />
    </linearGradient>

    <linearGradient id="armorGreen" x1="0" y1="0" x2="1" y2="1">
      <stop offset="0%" stop-color="#ccffee" />
      <stop offset="28%" stop-color="#00cc88" />
      <stop offset="62%" stop-color="#005533" />
      <stop offset="100%" stop-color="#001a0d" />
    </linearGradient>

    <filter id="wideGlow" x="-70%" y="-70%" width="240%" height="240%">
      <feGaussianBlur stdDeviation="18" result="blur" />
      <feColorMatrix in="blur" type="matrix"
        values="0 0 0 0 0  0 1 0 0 0  0 0 0 0 0.28  0 0 0 0.9 0"
        result="greenBlur" />
      <feMerge>
        <feMergeNode in="greenBlur" />
        <feMergeNode in="SourceGraphic" />
      </feMerge>
    </filter>

    <filter id="lineGlow" x="-45%" y="-45%" width="190%" height="190%">
      <feGaussianBlur stdDeviation="4" result="blur" />
      <feMerge>
        <feMergeNode in="blur" />
        <feMergeNode in="SourceGraphic" />
      </feMerge>
    </filter>

    <filter id="shieldGlow" x="-38%" y="-38%" width="176%" height="176%">
      <feGaussianBlur stdDeviation="11" result="blur" />
      <feColorMatrix in="blur" type="matrix"
        values="0 0 0 0 0  0 0.95 0 0 0  0 0 0 0 0.55  0 0 0 0.88 0"
        result="g" />
      <feMerge>
        <feMergeNode in="g" />
        <feMergeNode in="SourceGraphic" />
      </feMerge>
    </filter>

    <filter id="tankShadow" x="-45%" y="-45%" width="190%" height="190%">
      <feDropShadow dx="-6" dy="10" stdDeviation="6" flood-color="#000000" flood-opacity="0.5" />
    </filter>
  </defs>

  <!-- Outer circular frame -->
  <circle cx="250" cy="250" r="166" fill="none" stroke="#00cc66" stroke-width="22" opacity="0.7" filter="url(#wideGlow)" />
  <circle cx="250" cy="250" r="137" fill="url(#coreGradient)" opacity="0.98" />
  <g fill="none" stroke-linecap="square">
    <circle cx="250" cy="250" r="166" stroke="#00ff88" stroke-width="8" filter="url(#lineGlow)" />
    <circle cx="250" cy="250" r="137" stroke="#ccffee" stroke-width="2" opacity="0.94" />
  </g>

  <!-- Cardinal + diagonal tick marks -->
  <g stroke="#00ff88" stroke-width="4" stroke-linecap="square" filter="url(#lineGlow)">
    <path d="M 250 46 L 250 73" />
    <path d="M 250 427 L 250 454" />
    <path d="M 46 250 L 73 250" />
    <path d="M 427 250 L 454 250" />
    <path d="M 105.8 105.8 L 124.9 124.9" />
    <path d="M 375.1 375.1 L 394.2 394.2" />
    <path d="M 394.2 105.8 L 375.1 124.9" />
    <path d="M 124.9 375.1 L 105.8 394.2" />
  </g>

  <!-- Small tank silhouette BEHIND the shield (subtle, dark) -->
  <g transform="translate(250, 272) scale(0.20) rotate(-20)" opacity="0.40" filter="url(#tankShadow)">
    <rect x="-118" y="-78" width="44" height="148" rx="15" fill="url(#trackGreen)" />
    <rect x="74" y="-78" width="44" height="148" rx="15" fill="url(#trackGreen)" />
    <path d="M -72 -106 L 72 -106 L 100 -74 L 100 60 L 68 92 L -68 92 L -100 60 L -100 -74 Z" fill="url(#armorGreen)" />
    <circle cx="0" cy="0" r="28" fill="#033a1a" />
    <rect x="-9" y="-102" width="18" height="102" rx="9" fill="#066633" />
  </g>

  <!-- MAIN ELEMENT: Large shield polygon -->
  <!-- Outer glow shield silhouette -->
  <path d="M 250 82
    C 320 82 368 104 368 136
    L 368 295
    C 368 376 250 426 250 426
    C 250 426 132 376 132 295
    L 132 136
    C 132 104 180 82 250 82 Z"
    fill="url(#shieldBody)" stroke="#00ff88" stroke-width="3" opacity="0.85"
    filter="url(#shieldGlow)" />

  <!-- Shield main crisp border -->
  <path d="M 250 82
    C 320 82 368 104 368 136
    L 368 295
    C 368 376 250 426 250 426
    C 250 426 132 376 132 295
    L 132 136
    C 132 104 180 82 250 82 Z"
    fill="none" stroke="#44ffcc" stroke-width="6"
    filter="url(#lineGlow)" opacity="0.96" />

  <!-- Shield inner inset border -->
  <path d="M 250 104
    C 308 104 346 122 346 148
    L 346 288
    C 346 356 250 400 250 400
    C 250 400 154 356 154 288
    L 154 148
    C 154 122 192 104 250 104 Z"
    fill="none" stroke="#88ffcc" stroke-width="2" opacity="0.58" />

  <!-- Shield decorative horizontal divider -->
  <path d="M 138 212 L 362 212"
    fill="none" stroke="#00ffcc" stroke-width="2.5" stroke-dasharray="10 6"
    opacity="0.62" filter="url(#lineGlow)" />

  <!-- Shield center emblem (cross in circle) -->
  <circle cx="250" cy="182" r="30" fill="#00cc88" fill-opacity="0.20" stroke="#44ffcc" stroke-width="3.5" filter="url(#lineGlow)" />
  <path d="M 250 160 L 250 204 M 228 182 L 272 182"
    fill="none" stroke="#aaffee" stroke-width="5" stroke-linecap="round" filter="url(#lineGlow)" />

  <!-- Shield lower V chevron accent -->
  <path d="M 188 260 L 250 302 L 312 260"
    fill="none" stroke="#00ffcc" stroke-width="3" stroke-linejoin="round"
    opacity="0.62" filter="url(#lineGlow)" />
  <path d="M 250 302 L 250 384"
    fill="none" stroke="#00ffcc" stroke-width="2"
    opacity="0.38" filter="url(#lineGlow)" />

  <!-- Energy nodes at shield key points -->
  <circle cx="250" cy="84" r="7.5" fill="#00ffcc" opacity="0.92" filter="url(#lineGlow)" />
  <circle cx="136" cy="150" r="5.5" fill="#00ff88" opacity="0.88" filter="url(#lineGlow)" />
  <circle cx="364" cy="150" r="5.5" fill="#00ff88" opacity="0.88" filter="url(#lineGlow)" />
  <circle cx="133" cy="294" r="5.5" fill="#00ff88" opacity="0.82" filter="url(#lineGlow)" />
  <circle cx="367" cy="294" r="5.5" fill="#00ff88" opacity="0.82" filter="url(#lineGlow)" />
  <circle cx="250" cy="426" r="7.5" fill="#00ffcc" opacity="0.88" filter="url(#lineGlow)" />

  <!-- Outer accent lines (same as other icons) -->
  <g filter="url(#lineGlow)" opacity="0.88">
    <path d="M 310 145 C 355 168 388 199 420 247" fill="none" stroke="#ccffee" stroke-width="5" stroke-linecap="round" opacity="0.76" />
    <path d="M 328 352 C 374 323 408 281 426 230" fill="none" stroke="#00ff88" stroke-width="7" stroke-linecap="round" opacity="0.58" />
  </g>
</svg>
